<svg xmlns="http://www.w3.org/2000/svg" xmlns:xlink="http://www.w3.org/1999/xlink" fill="none" version="1.1" width="24" height="24" viewBox="0 0 24 24"><g><g><g><path d="M4,18.5749C4,21.2949,7.66237,21.9999,12,21.9999C16.3146,21.9999,20,21.3199,20,18.5989C20,15.8788,16.3386,15.1738,12,15.1738C7.68538,15.1738,4,15.8538,4,18.5749C4,18.5749,4,18.5749,4,18.5749ZM12.00004,12.5831C14.9391,12.5831,17.2941,10.22808,17.2941,7.29105C17.2941,4.35402,14.9391,2,12.00004,2C9.06193,2,6.706049999999999,4.35402,6.706049999999999,7.29105C6.706049999999999,10.22808,9.06193,12.5831,12.00004,12.5831Z" fill="#FB233B" fill-opacity="1"/></g></g></g></svg>