<svg xmlns="http://www.w3.org/2000/svg" fill="none" version="1.1" width="24"
     height="24" viewBox="0 0 24 24">
    <defs>
        <clipPath id="master_svg0_0_15469">
            <rect x="0" y="0" width="24" height="24" rx="0"/>
        </clipPath>
    </defs>
    <g clip-path="url(#master_svg0_0_15469)">
        <g>
            <path d="M12,19.125C12.62132,19.125,13.125,18.621299999999998,13.125,18C13.125,17.378700000000002,12.62132,16.875,12,16.875C11.37868,16.875,10.875,17.378700000000002,10.875,18C10.875,18.621299999999998,11.37868,19.125,12,19.125C12,19.125,12,19.125,12,19.125ZM12,7.125C12.62132,7.125,13.125,6.62132,13.125,6C13.125,5.37868,12.62132,4.875,12,4.875C11.37868,4.875,10.875,5.37868,10.875,6C10.875,6.62132,11.37868,7.125,12,7.125C12,7.125,12,7.125,12,7.125ZM12,13.125C12.62132,13.125,13.125,12.62132,13.125,12C13.125,11.37868,12.62132,10.875,12,10.875C11.37868,10.875,10.875,11.37868,10.875,12C10.875,12.62132,11.37868,13.125,12,13.125C12,13.125,12,13.125,12,13.125Z"
                  fill="#121212" fill-opacity="1"/>
        </g>
    </g>
</svg>